<svg aria-hidden="true" style="position: absolute; width: 0; height: 0; overflow: hidden;" version="1.1" xmlns="http://www.w3.org/2000/svg" xmlns:xlink="http://www.w3.org/1999/xlink">
    <defs>
        <symbol id="icon-back" viewBox="0 0 18 32">
            <path fill="#2c2c54" style="fill: var(--color1, #2c2c54)" d="M0 16c0 0.631 0.233 1.172 0.734 1.642l13.934 13.745c0.394 0.397 0.895 0.613 1.486 0.613 1.182 0 2.131-0.938 2.131-2.146 0-0.595-0.251-1.118-0.645-1.533l-12.555-12.32 12.555-12.32c0.394-0.415 0.645-0.956 0.645-1.533 0-1.209-0.949-2.147-2.131-2.147-0.591 0-1.092 0.216-1.486 0.613l-13.934 13.727c-0.501 0.487-0.734 1.028-0.734 1.66z"></path>
        </symbol>
        <symbol id="icon-close" viewBox="0 0 32 32">
            <path d="M20.828 15.288l10.284-10.287c0.278-0.268 0.5-0.589 0.652-0.944s0.233-0.737 0.236-1.123c0.003-0.386-0.070-0.769-0.217-1.127s-0.362-0.682-0.635-0.955-0.598-0.489-0.955-0.635c-0.358-0.146-0.741-0.22-1.127-0.217s-0.768 0.084-1.123 0.236c-0.355 0.152-0.676 0.374-0.944 0.652l-10.287 10.284-10.284-10.284c-0.268-0.278-0.589-0.499-0.944-0.652s-0.737-0.233-1.123-0.236c-0.386-0.003-0.769 0.070-1.127 0.217s-0.682 0.362-0.955 0.635c-0.273 0.273-0.489 0.598-0.635 0.955s-0.22 0.741-0.217 1.127c0.003 0.386 0.084 0.768 0.236 1.123s0.374 0.676 0.652 0.944l10.284 10.284-10.284 10.287c-0.278 0.268-0.499 0.589-0.652 0.944s-0.233 0.737-0.236 1.123c-0.003 0.386 0.070 0.769 0.217 1.127s0.362 0.682 0.635 0.956 0.598 0.489 0.955 0.635c0.358 0.146 0.741 0.22 1.127 0.216s0.768-0.084 1.123-0.236 0.676-0.374 0.944-0.652l10.284-10.284 10.287 10.284c0.268 0.278 0.589 0.5 0.944 0.652s0.737 0.233 1.123 0.236c0.386 0.003 0.769-0.070 1.127-0.216s0.682-0.362 0.955-0.635c0.273-0.273 0.489-0.598 0.635-0.956s0.22-0.741 0.217-1.127c-0.003-0.386-0.084-0.768-0.236-1.123s-0.374-0.676-0.652-0.944l-10.284-10.284z"></path>
        </symbol>
        <symbol id="icon-burger" viewBox="0 0 32 32">
            <path d="M14 8c0-0.28 0-0.418 0.016-0.534 0.051-0.367 0.22-0.707 0.482-0.968s0.602-0.431 0.968-0.482c0.114-0.016 0.254-0.016 0.534-0.016s0.418 0 0.534 0.016c0.367 0.051 0.707 0.22 0.968 0.482s0.431 0.602 0.482 0.968c0.016 0.114 0.016 0.254 0.016 0.534s0 0.418-0.016 0.534c-0.051 0.367-0.22 0.707-0.482 0.968s-0.602 0.431-0.968 0.482c-0.114 0.016-0.254 0.016-0.534 0.016s-0.418 0-0.534-0.016c-0.367-0.051-0.707-0.22-0.968-0.482s-0.431-0.602-0.482-0.968c-0.016-0.114-0.016-0.254-0.016-0.534zM14 16c0-0.28 0-0.418 0.016-0.534 0.051-0.367 0.22-0.707 0.482-0.968s0.602-0.431 0.968-0.482c0.114-0.016 0.254-0.016 0.534-0.016s0.418 0 0.534 0.016c0.367 0.051 0.707 0.22 0.968 0.482s0.431 0.602 0.482 0.968c0.016 0.114 0.016 0.254 0.016 0.534s0 0.418-0.016 0.534c-0.051 0.367-0.22 0.707-0.482 0.968s-0.602 0.431-0.968 0.482c-0.114 0.016-0.254 0.016-0.534 0.016s-0.418 0-0.534-0.016c-0.367-0.051-0.707-0.22-0.968-0.482s-0.431-0.602-0.482-0.968c-0.016-0.114-0.016-0.254-0.016-0.534zM14 24c0-0.278 0-0.418 0.016-0.534 0.051-0.366 0.22-0.705 0.482-0.966s0.601-0.43 0.966-0.482c0.118-0.016 0.256-0.016 0.534-0.016s0.42 0 0.534 0.016c0.366 0.051 0.705 0.22 0.966 0.482s0.43 0.6 0.482 0.966c0.016 0.116 0.016 0.256 0.016 0.534s0 0.418-0.016 0.534c-0.051 0.366-0.22 0.705-0.482 0.966s-0.601 0.43-0.966 0.482c-0.116 0.016-0.256 0.016-0.534 0.016s-0.418 0-0.534-0.016c-0.366-0.051-0.705-0.22-0.966-0.482s-0.43-0.6-0.482-0.966c-0.016-0.116-0.016-0.256-0.016-0.534z"></path>
        </symbol>
        <symbol id="icon-playstore" viewBox="0 0 32 32">
            <path fill="#32bbff" style="fill: var(--color1, #32bbff)" d="M23.898 10.976c-3.717-2.079-9.684-5.418-18.938-10.6-0.624-0.412-1.342-0.466-1.962-0.256l15.878 15.878 5.022-5.022z"></path>
            <path fill="#32bbff" style="fill: var(--color1, #32bbff)" d="M2.998 0.121c-0.116 0.039-0.229 0.087-0.338 0.144-0.685 0.371-1.188 1.083-1.188 1.985v27.498c0 0.902 0.503 1.615 1.188 1.985 0.108 0.057 0.221 0.105 0.337 0.145l15.879-15.878-15.878-15.878z"></path>
            <path fill="#32bbff" style="fill: var(--color1, #32bbff)" d="M18.876 15.999l-15.879 15.878c0.62 0.211 1.338 0.162 1.962-0.256 8.975-5.026 14.874-8.325 18.635-10.422 0.105-0.059 0.207-0.116 0.309-0.173l-5.027-5.027z"></path>
            <path fill="#2c9fd9" style="fill: var(--color2, #2c9fd9)" d="M1.472 15.999v13.749c0 0.902 0.503 1.615 1.188 1.985 0.108 0.057 0.221 0.105 0.337 0.145l15.879-15.878h-17.404z"></path>
            <path fill="#29cc5e" style="fill: var(--color3, #29cc5e)" d="M4.96 0.377c-0.741-0.489-1.615-0.475-2.3-0.112l15.975 15.975 5.263-5.263c-3.717-2.079-9.684-5.418-18.938-10.6z"></path>
            <path fill="#d93f21" style="fill: var(--color4, #d93f21)" d="M18.635 15.758l-15.975 15.975c0.685 0.363 1.559 0.384 2.3-0.112 8.975-5.026 14.874-8.325 18.635-10.422 0.105-0.059 0.207-0.116 0.309-0.173l-5.268-5.268z"></path>
            <path fill="#ffd500" style="fill: var(--color5, #ffd500)" d="M30.528 15.999c0-0.762-0.384-1.531-1.146-1.957 0 0-1.425-0.795-5.793-3.238l-5.195 5.195 5.2 5.2c4.32-2.425 5.788-3.243 5.788-3.243 0.762-0.426 1.146-1.195 1.146-1.957z"></path>
            <path fill="#fa0" style="fill: var(--color6, #fa0)" d="M29.382 17.956c0.762-0.426 1.146-1.195 1.146-1.957h-12.134l5.2 5.2c4.32-2.425 5.788-3.243 5.788-3.243z"></path>
        </symbol>
    </defs>
</svg>